<svg xmlns="http://www.w3.org/2000/svg" viewBox="0 0 1200 720" role="img" aria-label="AI generated construction job site scene with electrician apprentice">
  <defs><linearGradient id="g" x1="0" y1="0" x2="1" y2="1"><stop stop-color="#f59e0b"/><stop offset="1" stop-color="#1f2937"/></linearGradient></defs>
  <rect width="1200" height="720" fill="url(#g)"/>
  <rect x="80" y="90" width="1040" height="560" rx="36" fill="#fff7ed" opacity=".88"/>
  <rect x="140" y="420" width="920" height="80" fill="#78350f" opacity=".35"/>
  <rect x="170" y="180" width="250" height="280" rx="10" fill="#334155"/>
  <circle cx="260" cy="250" r="36" fill="#fbbf24"/><rect x="235" y="286" width="52" height="118" fill="#f97316"/><rect x="205" y="316" width="32" height="95" fill="#0f172a"/><rect x="286" y="316" width="32" height="95" fill="#0f172a"/>
  <rect x="680" y="190" width="230" height="310" rx="12" fill="#475569"/><rect x="710" y="220" width="170" height="36" fill="#e5e7eb"/><circle cx="740" cy="300" r="18" fill="#22c55e"/><circle cx="800" cy="300" r="18" fill="#ef4444"/><circle cx="860" cy="300" r="18" fill="#f59e0b"/>
  <path d="M420 500 C560 360 620 590 700 420" stroke="#111827" stroke-width="18" fill="none" stroke-linecap="round"/>
  <text x="140" y="595" font-family="Arial" font-size="46" font-weight="800" fill="#111827">Electrician Job Site Simulation</text>
</svg>